<svg height='100px' width='100px'  fill="#000000" xmlns="http://www.w3.org/2000/svg" xmlns:xlink="http://www.w3.org/1999/xlink" version="1.1" x="0px" y="0px" viewBox="0 0 128 128" style="enable-background:new 0 0 128 128;" xml:space="preserve"><g><path d="M59.4016113,41.7671509C61.1343384,49.8985596,68.3518066,56,77,56c9.9411011,0,18-8.0588989,18-18s-8.0588989-18-18-18   c-4.4592896,0-8.5170898,1.6468506-11.6604614,4.3336182l0.0028076-0.0095825c0,0-0.086853,0.0808716-0.3815308,0.3221436   c-0.4473877,0.366333-1.3786011,1.1060181-3.2496948,2.5227661c-2.5493774,1.9302368-7.5596924,1.5789185-10.4165649,1.1765747   c-1.2362061-0.1740723-2.338501,0.7698975-2.3771362,2.0177612C48.7984009,34.2139893,49.8862915,41.3841553,59.4016113,41.7671509   z M77,54c-7.5264282,0-13.8388672-5.2303467-15.5360107-12.2425537   c7.0633545-0.3895874,12.9345703-5.2180176,14.8588257-11.7556152c1.9017944,4.6380005,6.2074585,10.0516357,15.7540283,13.3034058   C89.8813477,49.5241089,83.9608765,54,77,54z"></path><path d="M116.9960327,20.65625c-0.0014648-2.3391724-1.3623047-4.4642944-3.4863281-5.4442749l-3.6714478-1.6939697   c-0.6616821-0.3052979-1.1049194-0.9463501-1.1569824-1.6732178l-0.3005981-4.197937   C108.2738647,6.1553955,107.0327759,5,105.5375366,5c-1.4055786,0-2.6013184,1.0245972-2.8167725,2.4135742l-1.1448975,7.3825073   c-0.3268433,2.107666-0.2005005,4.2608643,0.3706665,6.3157959l0.3903809,1.4044189   c0.3051758,1.0979004,0.4842529,2.2270508,0.5337524,3.3655396L103.0062256,29H103v16.9388428   c0.0657959,2.8345947-0.7976074,5.6019897-2.4094849,7.9337158C97.9851685,57.6414795,93.6953735,59.8910522,89.1135864,60   h-3.9135742H84H70.7999878c-4.2522583,0-8.1239624,1.5924072-11.083313,4.1970825v-0.0314941L47.4984131,74.8483276   c-1.085022,0.9486694-2.7869263,0.4729614-3.2227783-0.9008179L39.2162476,58h-0.0144653l-1.8399048-5.854248   c-1.0411377-3.3128052-3.2717896-5.9995117-6.1277466-7.6689453l12.6384277-29.4416504   c0.0197754-0.0460815,0.0170288-0.0940552,0.02948-0.1411133c0.0198364-0.0750732,0.0450439-0.1498413,0.0471191-0.2252197   c0.00177-0.0634766-0.0165405-0.1253052-0.0267944-0.1881714c-0.0106201-0.0635986-0.0134888-0.1288452-0.0359497-0.1890259   c-0.0261841-0.0700684-0.0737305-0.1321411-0.116394-0.1962891c-0.0271606-0.0408936-0.0402832-0.0875854-0.0742188-0.1251221   c-0.0028076-0.0031128-0.015625-0.0166016-0.0203857-0.0217896c-0.0003662-0.0004272-0.0012207-0.0012207-0.0015259-0.0015869   c-0.3151855-0.3434448-4.6618042-4.9258423-12.1387329-4.9258423c-1.9936523,0-4.1875,0.9448242-6.309082,1.8588867   c-2.0053711,0.8642578-4.0791016,1.7573242-5.7861328,1.7573242c-4.3754883,0-7.8149414-2.4707031-7.8491211-2.4960938   c-0.3046875-0.2211914-0.7070312-0.2553711-1.043457-0.0834961C10.2119141,10.2280273,10,10.5717773,10,10.9482422v16.6416016   c0,0.3183594,0.1513672,0.6176758,0.4077148,0.8056641c0.1601562,0.1176758,3.9819336,2.8833008,9.0322266,2.8833008   c2.1484375,0,4.1337891-0.987793,6.0541992-1.9433594c1.7285156-0.8603516,3.3613281-1.6728516,4.9140625-1.6728516   c2.3623047,0,4.2741699,1.1825562,5.0993042,1.7886353l-6.071106,14.1428833   c-1.5795288-0.6341553-3.291687-0.9850464-5.0682373-0.9850464c-1.3875732,0-2.3936768,1.3218384-2.0241699,2.6593018   L25.8616333,58h-0.0157471l8.1110229,29.5026855c1.5241699,5.5439453,7.3981934,8.6638184,12.8449707,6.8223267   l8.1139526-2.7431641c0.633606,3.7521973,1.5904541,7.4494019,2.8729248,11.046875L58,103.2213745V119c0,1.1045532,0.8954468,2,2,2   h40c1.1045532,0,2-0.8954468,2-2v-17v-9.7280273c0.2713013-3.3967896,1.0952759-6.7428589,2.6725464-9.7512207   l10.5438232-20.1104126C116.8898315,59.2184448,117,55.7783813,117,52.0470581V29h0.0012817L116.9960327,20.65625z    M30.4082031,25.6625977c-2.0224609,0-3.9458008,0.9570312-5.8051758,1.8823242   c-1.7919922,0.8916016-3.4848633,1.7338867-5.1630859,1.7338867c-3.5004883,0-6.4018555-1.581543-7.4399414-2.2265625V12.7158203   c1.6020508,0.8393555,4.2807617,1.9213867,7.4399414,1.9213867c2.1196289,0,4.3857422-0.9760742,6.5771484-1.9204102   c1.9355469-0.8334961,3.9365234-1.6958008,5.5180664-1.6958008c5.3970947,0,9.013855,2.7697754,10.227478,3.8588867   l-5.4484863,12.6923828C35.1454468,26.7821045,33.0306396,25.6625977,30.4082031,25.6625977z M24.2885742,44.6484985   c0.0300293-0.0394287,0.0610352-0.0394287,0.0795898-0.0394287c1.5040283,0,2.9487915,0.2908325,4.2820435,0.8164062   c0.6248779,0.2463379,1.2264404,0.5410767,1.7949829,0.8890381c2.3326416,1.4276733,4.1415405,3.6716309,5.008667,6.4308472   L36.4767456,56h-9.0927734l-3.1121826-11.2642822C24.2668457,44.7178955,24.2585449,44.6879883,24.2885742,44.6484985z M67,67   c-1.1045532,0-2-0.8954468-2-2s0.8954468-2,2-2s2,0.8954468,2,2S68.1045532,67,67,67z M71,70c-1.1045532,0-2-0.8954468-2-2   s0.8954468-2,2-2s2,0.8954468,2,2S72.1045532,70,71,70z M77,71c-1.1045532,0-2-0.8954468-2-2s0.8954468-2,2-2s2,0.8954468,2,2   S78.1045532,71,77,71z M83,70c-1.1045532,0-2-0.8954468-2-2s0.8954468-2,2-2s2,0.8954468,2,2S84.1045532,70,83,70z M85,65   c0-0.5340576,0.2124634-1.0163574,0.5535278-1.375061C85.9179077,63.2416992,86.4295044,63,87,63c1.1045532,0,2,0.8954468,2,2   s-0.8954468,2-2,2S85,66.1045532,85,65z M105.5375366,7c0.4439087,0,0.8165283,0.3468628,0.8482666,0.7896729l0.3005981,4.1980591   c0.104126,1.4535522,0.9907837,2.7357178,2.3139648,3.3462524l3.6714478,1.6939697   c1.4109497,0.651001,2.3232422,2.0756836,2.3242188,3.6295166L115,27h-10.0788574l-0.0523682-1.2050781   c-0.0560303-1.2884521-0.2595215-2.5717163-0.6049194-3.81427l-0.3903809-1.4043579   c-0.4983521-1.7929688-0.6064453-3.6346436-0.321228-5.4736938l1.1448975-7.3824463   C104.7618408,7.3028564,105.1152954,7,105.5375366,7z"></path></g></svg>