<svg xmlns="http://www.w3.org/2000/svg" viewBox="0 0 64 80" x="0px" y="0px"><title>AR-robot-Artificial-technology-science-intelligence</title><g data-name="15-AR robot"><path d="M34.687,28.728l.241-.242a2.541,2.541,0,0,0,.451-2.964,1.6,1.6,0,0,1-.087-1.234l.2-.592a3.1,3.1,0,0,0-1-3.386l-2.795-2.236a2.766,2.766,0,0,1-.981-1.612l-.125-.625A13.23,13.23,0,0,0,19.5,5.348a13.118,13.118,0,0,0-5.061.26l-1.685.422a1.011,1.011,0,0,0-.155.076,1.04,1.04,0,0,0-.139.05L11.3,6.9A12.887,12.887,0,0,0,6.647,23.589a4.7,4.7,0,0,0-.39,3.915l-.089-.059A12.726,12.726,0,0,0,8.822,44.538l1.173.939a5.6,5.6,0,0,0-.112.985A18.431,18.431,0,0,0,.408,60.077l-.4,2.781A1,1,0,0,0,1,64H32a1,1,0,0,0,.9-1.447l-2-3.989A7.805,7.805,0,0,0,27.436,55.1,4.844,4.844,0,0,1,25.1,52.565a7.791,7.791,0,0,0-4.386-4.356,5.418,5.418,0,0,0,.177-.581L21.98,42.2a.225.225,0,0,0,0-.026c0-.01.008-.018.01-.028l.8-5.633A7.737,7.737,0,0,0,25.46,37h6.922A3.635,3.635,0,0,0,34,36.618a3.6,3.6,0,0,0,2-3.236V30.945A2.511,2.511,0,0,0,34.687,28.728ZM20.147,40.9l-6.953-.773.215-1.074,6.893.766Zm-9.021-.964A7.142,7.142,0,0,1,9.683,30.8a5.124,5.124,0,0,0,.571.123l1.713,5.14-.783,3.919ZM11,23a3,3,0,1,1-3,3A3,3,0,0,1,11,23Zm.965,22.765.816-3.672.959.107-1.26,6.3c-.013-.019-.03-.034-.042-.054A3.538,3.538,0,0,1,11.965,45.765Zm3.77-3.344.94.105-1.509,7.547a3.808,3.808,0,0,1-.5-.06,3.623,3.623,0,0,1-.424-.139Zm2.935.327,1.136.126-.873,4.361a3.531,3.531,0,0,1-1.548,2.286c-.025.016-.052.024-.077.04ZM13.8,37.083l.074-.371,1.509-.646,5.343.763-.144,1.007Zm5.119-2.533.637-.273c.128.15.272.283.41.422Zm-5.317.1L12.321,30.8a4.993,4.993,0,0,0,3.171-2.646l1.947.487a5,5,0,0,0,.375,2.464l.51,1.189c.041.1.1.182.143.275Zm2.373-8.439c0-.073.022-.141.022-.214a4.945,4.945,0,0,0-1.036-3.012l2.579-1.547.617,1.586a4.661,4.661,0,0,1-.148,3.7Zm-3.6-17.631.129-.083,4.26,11.075-3.406,2.044a4.876,4.876,0,0,0-5.26.324A10.9,10.9,0,0,1,12.376,8.583Zm-5.039,20.8a5.086,5.086,0,0,0,.563.514A9.141,9.141,0,0,0,9.824,41.453l.883.756-.241,1.083-.395-.316A10.727,10.727,0,0,1,7.337,29.378ZM7.142,62a3.981,3.981,0,0,1,7.716,0Zm16.1-8.692a6.843,6.843,0,0,0,3.3,3.581,5.777,5.777,0,0,1,2.57,2.57L30.382,62H16.91A5.993,5.993,0,0,0,5.09,62H2.153l.234-1.64a16.315,16.315,0,0,1,7.88-11.791,5.548,5.548,0,0,0,3.968,3.4,5.631,5.631,0,0,0,1.22.135,5.42,5.42,0,0,0,4.32-2.116A5.8,5.8,0,0,1,23.246,53.308ZM34,33.382A1.619,1.619,0,0,1,32.382,35H25.46a5.757,5.757,0,0,1-5.3-3.494l-.509-1.188a3.009,3.009,0,0,1,.076-2.538l.045-.092a6.666,6.666,0,0,0,.25-5.386L14.343,7.7l.584-.146a11.22,11.22,0,0,1,13.7,8.681l.125.624a4.756,4.756,0,0,0,1.693,2.781l2.795,2.237a1.091,1.091,0,0,1,.352,1.192l-.2.591a3.622,3.622,0,0,0,.219,2.807.528.528,0,0,1-.1.61l-.65.65a1.582,1.582,0,0,0,.41,2.533l.434.217a.526.526,0,0,1,.292.473Z"/><path d="M27,19a1,1,0,0,0,0-2,2.754,2.754,0,0,0-3,2.5A2.754,2.754,0,0,0,27,22a1,1,0,0,0,0-2c-.62,0-1-.324-1-.5S26.38,19,27,19Z"/><path d="M59.1,45.484l-.139.138a9.722,9.722,0,0,1-1.987,1.528l6.929-14.724-1.81-.852L54.261,48.222a9.7,9.7,0,0,1-1.125.2l-1.858.206.209-.278a2.577,2.577,0,0,0-1.245-3.991,2.551,2.551,0,0,0-1.924.134l-5.44-9.973-1.756.958,5.642,10.343-1.232,1.232A4.915,4.915,0,0,0,45,47a4.993,4.993,0,0,0-4.975,4.755l-3.965,10.9A1,1,0,0,0,37,64h7a1,1,0,0,0,.961-.726l1.9-6.641a5.005,5.005,0,0,0,2.04-1.541l2.641.256q.621.06,1.238.06A11.582,11.582,0,0,0,60.244,52.8a11.846,11.846,0,0,0,3.226-4.358A2.687,2.687,0,0,0,59.1,45.484ZM49.019,46.4a.572.572,0,0,1,.589-.138.575.575,0,0,1,.28.892L48.726,48.7a4.979,4.979,0,0,0-1.084-.926ZM43.246,62H38.428l2.561-7.044a4.977,4.977,0,0,0,3.7,2.012ZM45,55a3,3,0,1,1,3-3A3,3,0,0,1,45,55Zm16.631-7.345a9.409,9.409,0,0,1-9.9,5.7l-1.886-.183a4.545,4.545,0,0,0-.007-2.372l3.518-.391a11.8,11.8,0,0,0,7.019-3.374l.139-.138a.686.686,0,0,1,1.116.756Z"/><path d="M40.427,16.819l10,7c.012.009.026.011.038.019s.027.023.042.032a1.076,1.076,0,0,0,.132.054c.028.011.055.025.084.034a.926.926,0,0,0,.7-.061c.012-.006.027,0,.039-.01s.016-.013.025-.018.019-.006.028-.012l10-6A1,1,0,0,0,62,17V6a.987.987,0,0,0-.771-.954L51.451.107a1,1,0,0,0-.9,0L40.771,5.046A.987.987,0,0,0,40,6V16A1,1,0,0,0,40.427,16.819ZM42,7.574,46,9.6V12a1,1,0,0,0,.293.707L50,16.414V21.08l-8-5.6Zm9.241,7.252L48,11.586v-.981l2.549,1.288a1,1,0,0,0,.9,0L55,10.1v3.223ZM52,21.234V16.677l4.372-1.748A1,1,0,0,0,57,14V9.09l3-1.516v8.86ZM51,2.12,58.681,6,51,9.88,43.319,6Z"/><rect x="47.5" y="23.938" width="2" height="20.125" transform="translate(-10.085 25.279) rotate(-26.565)"/><rect x="49.594" y="27.5" width="15.811" height="2" transform="translate(1.338 59.554) rotate(-55.305)"/></g><text x="0" y="79" fill="#000000" font-size="5px" font-weight="bold" font-family="'Helvetica Neue', Helvetica, Arial-Unicode, Arial, Sans-serif">Created by VINZENCE STUDIO</text><text x="0" y="84" fill="#000000" font-size="5px" font-weight="bold" font-family="'Helvetica Neue', Helvetica, Arial-Unicode, Arial, Sans-serif">from the Noun Project</text></svg>